<svg xmlns="http://www.w3.org/2000/svg"><symbol id="account" viewBox="0 0 19.89 21.14"><defs><style>.cls-1{fill:#231f20}</style></defs><path d="M0 19.2C0 16.05 3.92 12 9.94 12s10 4.09 10 7.24c0 1.32-.92 1.94-2.82 1.94H2.82C.92 21.14 0 20.52 0 19.2zm17.31 0c.34 0 .46-.1.46-.34 0-1.8-2.85-5-7.83-5s-7.82 3.21-7.82 5c0 .24.12.34.46.34zM5 5.26A5.09 5.09 0 0 1 10 0a5.1 5.1 0 0 1 4.94 5.25A5.15 5.15 0 0 1 10 10.61a5.15 5.15 0 0 1-5-5.35zm7.88 0a3.14 3.14 0 0 0-3-3.33A3.15 3.15 0 0 0 7 5.26a3.21 3.21 0 0 0 3 3.44 3.22 3.22 0 0 0 2.9-3.45z" class="cls-1"/></symbol><symbol id="cart" viewBox="0 0 26.28 22.6"><defs><style>.cls-1{fill:#231f20}</style></defs><path d="M6.37 14.19l-1.76-12H1.05a1.07 1.07 0 0 1 0-2.19H5c1.16 0 1.57.48 1.7 1.42l.18 1.3H25a1.11 1.11 0 0 1 1.26 1.13v.47L25.39 10c-.25 1.7-1.14 2.72-2.85 2.72H8.33L8.52 14c.09.58.42.95 1 .95h13a1 1 0 1 1 0 2H9.2c-1.68-.07-2.58-1.09-2.83-2.76zm.8-9.5l.88 6h14.27c.55 0 .84-.34.93-.92L24 4.69zm1.08 15.92a2 2 0 1 1 2 2 2 2 0 0 1-2-2zm10.37 0a2 2 0 1 1 2 2 2 2 0 0 1-2-2z" class="cls-1"/></symbol><symbol id="fb" viewBox="0 0 21.69 21.88"><defs><style>.cls-1{fill:#fff}</style></defs><path id="YEDjfB.tif" d="M5.45 11.94V8.46c.09-.33.32-.42.64-.41h2.54V5.8A6.07 6.07 0 0 1 9 3.61a4.41 4.41 0 0 1 1.95-2.4 4.87 4.87 0 0 1 2.39-.68h2.86c.44 0 .59.15.59.6V4c0 .44-.14.58-.58.58h-2.05a1.65 1.65 0 0 0-.7.23 1.05 1.05 0 0 0-.41 1v2.13a.49.49 0 0 0 0 .11h3c.42 0 .57.14.57.56v3.19c0 .41-.15.55-.56.55h-3.01v8.5a.68.68 0 0 1-.29.63H8.92a.6.6 0 0 1-.3-.6v-8.53H6.09c-.43 0-.49-.03-.64-.41z" class="cls-1"/></symbol><symbol id="search" viewBox="0 0 21.69 21.88"><defs><style>.cls-1{fill:#231f20}</style></defs><path d="M0 8.93A8.93 8.93 0 1 1 16.24 14l5 5a1.66 1.66 0 0 1 .48 1.19 1.68 1.68 0 0 1-2.86 1.2l-5-5a8.85 8.85 0 0 1-4.89 1.47A9 9 0 0 1 0 8.93zm15.5 0a6.58 6.58 0 1 0-6.57 6.57 6.6 6.6 0 0 0 6.57-6.57z" class="cls-1"/></symbol><symbol id="insta" viewBox="0 0 21.69 21.88"><defs><style>.cls-1{fill:#fff}</style></defs><g id="flTO7H.tif"><path d="M10.85 21.55l-4.32-.09a7 7 0 0 1-3.09-.71 5.3 5.3 0 0 1-2.91-4.14 27.63 27.63 0 0 1-.21-3.41V8.07a13 13 0 0 1 .32-3.29A5.34 5.34 0 0 1 5.22.66 23.14 23.14 0 0 1 8.56.45h5.56a11.14 11.14 0 0 1 2.93.3 5.34 5.34 0 0 1 4.13 4.6 22.13 22.13 0 0 1 .2 3.36v5.54a10.56 10.56 0 0 1-.38 3.18 5.29 5.29 0 0 1-4 3.78 12.1 12.1 0 0 1-2.41.26c-1.23.05-2.46.08-3.69.08zm0-1.94h2.57c.85 0 1.67-.05 2.5-.13a3.54 3.54 0 0 0 3.34-3 17.7 17.7 0 0 0 .22-2.92V8.39c0-.83-.05-1.67-.13-2.5a3.59 3.59 0 0 0-3.13-3.36 20.88 20.88 0 0 0-2.85-.19h-5c-.84 0-1.69.05-2.52.13a3.53 3.53 0 0 0-3.34 3 18.15 18.15 0 0 0-.23 3v5.12c0 .84 0 1.68.13 2.52a3.79 3.79 0 0 0 .91 2.18 4 4 0 0 0 2.88 1.23c1.55.08 3.09.05 4.64.09z" class="cls-1"/><path d="M16.27 11a5.42 5.42 0 1 1-5.42-5.42A5.41 5.41 0 0 1 16.27 11zm-1.91 0a3.51 3.51 0 1 0-3.48 3.49A3.5 3.5 0 0 0 14.36 11zm2.11-4.38a1.27 1.27 0 1 1 0-2.53 1.27 1.27 0 1 1 0 2.53z" class="cls-1"/></g></symbol><symbol id="twitter" viewBox="0 0 21.69 21.88"><defs><style>.cls-1{fill:#fff}</style></defs><path id="g3tEmC.tif" d="M2.22 3.56a11.77 11.77 0 0 0 8.45 4.29c0-.22-.05-.43-.06-.63A4.06 4.06 0 0 1 13.42 3a4 4 0 0 1 4.09.9.45.45 0 0 0 .49.1 8.73 8.73 0 0 0 2.16-.84l.19-.09a4.19 4.19 0 0 1-1.7 2.21c.37-.08.74-.15 1.1-.25s.71-.23 1.12-.37a5.38 5.38 0 0 1-.46.61c-.46.47-.94.93-1.43 1.38a.37.37 0 0 0-.14.29 11.85 11.85 0 0 1-2.2 7.22 10.91 10.91 0 0 1-6.64 4.6 11.9 11.9 0 0 1-4.15.24A11.59 11.59 0 0 1 1 17.35l-.16-.11a8.41 8.41 0 0 0 6-1.69 4.19 4.19 0 0 1-3.83-2.87 4.19 4.19 0 0 0 1.8-.07 4.11 4.11 0 0 1-3.17-4.07A4.55 4.55 0 0 0 3.43 9a4.16 4.16 0 0 1-1.21-5.44z" class="cls-1"/></symbol></svg>