<svg xmlns="http://www.w3.org/2000/svg"><symbol id="logo-32" viewBox="0 0 32 32"><style>.st0{fill:#231f20}</style><path d="M15.8 0c4.1 0 8 1.6 10.9 4.5 3 2.9 4.7 7 4.6 11.2.1 4.2-1.5 8.4-4.4 11.5-2.7 3.1-6.7 4.8-10.8 4.8C12 32 8 30.3 5.2 27.3 2.3 24.4.6 20.3.7 16.2c0-2.3.4-4.5 1.3-6.6.7-1.9 1.9-3.6 3.3-5.1 1.4-1.4 3-2.5 4.9-3.3C12 .4 13.9 0 15.8 0zM8.2 16c-.1 2.3.8 4.5 2.4 6.1 2.8 3 7.6 3.2 10.6.3l.1-.1c.1-.1.2-.1.2-.2 1.6-1.6 2.5-3.9 2.3-6.2.1-2.3-.8-4.5-2.4-6.2C20 8.4 18 7.6 16 7.6c-2 0-4 .9-5.4 2.4-1.7 1.5-2.5 3.7-2.4 6z" class="st0"/></symbol><symbol id="logo-64" viewBox="0 0 64 64"><defs><style>.cls-1{fill:#231f20}</style></defs><path d="M15.14 17.21a14.25 14.25 0 0 1 10.35 4.3 14.37 14.37 0 0 1 4.39 10.7 15.37 15.37 0 0 1-4.19 10.9 13.56 13.56 0 0 1-10.32 4.49A13.94 13.94 0 0 1 5 43.14 14.69 14.69 0 0 1 .68 32.59a16.34 16.34 0 0 1 1.21-6.26 14.6 14.6 0 0 1 3.22-4.9 15.16 15.16 0 0 1 4.64-3.1 13.49 13.49 0 0 1 5.39-1.12zM7.82 32.38a7.72 7.72 0 0 0 2.31 5.83 7.17 7.17 0 0 0 10.12.26l.21-.2a7.69 7.69 0 0 0 2.29-5.88 7.77 7.77 0 0 0-2.32-5.87 7.26 7.26 0 0 0-5.16-2.17 7.14 7.14 0 0 0-5.16 2.24 7.75 7.75 0 0 0-2.29 5.79zm36.44-6.44A8.54 8.54 0 0 1 51 29a11 11 0 0 1 2.68 7.49v7.09a10.7 10.7 0 0 1-.09 1.42 3.11 3.11 0 0 1-.38 1c-.35.7-1.39 1-3.1 1s-2.66-.34-3.06-1a3 3 0 0 1-.39-1 11.72 11.72 0 0 1-.06-1.45v-7a3.48 3.48 0 0 0-.92-2.57 3.21 3.21 0 0 0-2.36-.98 3.92 3.92 0 0 0-2.51.84 3.12 3.12 0 0 0-1.26 2v7.81a12.73 12.73 0 0 1 0 1.38 3.41 3.41 0 0 1-.44.97c-.34.69-1.38 1-3.1 1s-2.72-.36-3.1-1.08a3.78 3.78 0 0 1-.34-1 11.09 11.09 0 0 1-.06-1.41V19.46a10.78 10.78 0 0 1 .06-1.39 3.3 3.3 0 0 1 .33-1c.38-.75 1.43-1.07 3.1-1.07s2.72.36 3.06 1.09a3.39 3.39 0 0 1 .39 1.06 10.7 10.7 0 0 1 .06 1.39v8.9a6 6 0 0 1 4.75-2.5zm12.03 15a2.08 2.08 0 0 1 1.23-1.06 8.56 8.56 0 0 1 2.57-.28 3.57 3.57 0 0 1 2.52.76 3.28 3.28 0 0 1 .78 2.42v.64a11.32 11.32 0 0 1-.06 1.43 3.67 3.67 0 0 1-.39 1.15c-.42.78-1.45 1.16-3.08 1.16s-2.69-.26-3.22-.78a4.32 4.32 0 0 1-.78-3 5.47 5.47 0 0 1 .43-2.44zm5.4-4.69a10.58 10.58 0 0 1-4.12 0 1.68 1.68 0 0 1-1.06-.72 2.65 2.65 0 0 1-.36-.93 8.58 8.58 0 0 1-.06-1.24V20.59a9.14 9.14 0 0 1 .06-1.28 2.78 2.78 0 0 1 .4-.94 1.8 1.8 0 0 1 1.09-.74 9.5 9.5 0 0 1 4.11 0 1.67 1.67 0 0 1 1.07.76 3.07 3.07 0 0 1 .36 1 9 9 0 0 1 .06 1.27v12.73a8.65 8.65 0 0 1-.06 1.25 2.54 2.54 0 0 1-.39.91 1.69 1.69 0 0 1-1.1.7z" class="cls-1"/></symbol><symbol id="cart" viewBox="0 0 26.28 22.6"><defs><style>.cls-1{fill:#231f20}</style></defs><path d="M6.37 14.19l-1.76-12H1.05a1.07 1.07 0 0 1 0-2.19H5c1.16 0 1.57.48 1.7 1.42l.18 1.3H25a1.11 1.11 0 0 1 1.26 1.13v.47L25.39 10c-.25 1.7-1.14 2.72-2.85 2.72H8.33L8.52 14c.09.58.42.95 1 .95h13a1 1 0 1 1 0 2H9.2c-1.68-.07-2.58-1.09-2.83-2.76zm.8-9.5l.88 6h14.27c.55 0 .84-.34.93-.92L24 4.69zm1.08 15.92a2 2 0 1 1 2 2 2 2 0 0 1-2-2zm10.37 0a2 2 0 1 1 2 2 2 2 0 0 1-2-2z" class="cls-1"/></symbol><symbol id="account" viewBox="0 0 19.89 21.14"><defs><style>.cls-1{fill:#231f20}</style></defs><path d="M0 19.2C0 16.05 3.92 12 9.94 12s10 4.09 10 7.24c0 1.32-.92 1.94-2.82 1.94H2.82C.92 21.14 0 20.52 0 19.2zm17.31 0c.34 0 .46-.1.46-.34 0-1.8-2.85-5-7.83-5s-7.82 3.21-7.82 5c0 .24.12.34.46.34zM5 5.26A5.09 5.09 0 0 1 10 0a5.1 5.1 0 0 1 4.94 5.25A5.15 5.15 0 0 1 10 10.61a5.15 5.15 0 0 1-5-5.35zm7.88 0a3.14 3.14 0 0 0-3-3.33A3.15 3.15 0 0 0 7 5.26a3.21 3.21 0 0 0 3 3.44 3.22 3.22 0 0 0 2.9-3.45z" class="cls-1"/></symbol><symbol id="search" viewBox="0 0 21.69 21.88"><defs><style>.cls-1{fill:#231f20}</style></defs><path d="M0 8.93A8.93 8.93 0 1 1 16.24 14l5 5a1.66 1.66 0 0 1 .48 1.19 1.68 1.68 0 0 1-2.86 1.2l-5-5a8.85 8.85 0 0 1-4.89 1.47A9 9 0 0 1 0 8.93zm15.5 0a6.58 6.58 0 1 0-6.57 6.57 6.6 6.6 0 0 0 6.57-6.57z" class="cls-1"/></symbol><symbol id="fb" viewBox="0 0 21.69 21.88"><defs><style>.cls-1{fill:#fff}</style></defs><path id="YEDjfB.tif" d="M5.45 11.94V8.46c.09-.33.32-.42.64-.41h2.54V5.8A6.07 6.07 0 0 1 9 3.61a4.41 4.41 0 0 1 1.95-2.4 4.87 4.87 0 0 1 2.39-.68h2.86c.44 0 .59.15.59.6V4c0 .44-.14.58-.58.58h-2.05a1.65 1.65 0 0 0-.7.23 1.05 1.05 0 0 0-.41 1v2.13a.49.49 0 0 0 0 .11h3c.42 0 .57.14.57.56v3.19c0 .41-.15.55-.56.55h-3.01v8.5a.68.68 0 0 1-.29.63H8.92a.6.6 0 0 1-.3-.6v-8.53H6.09c-.43 0-.49-.03-.64-.41z" class="cls-1"/></symbol><symbol id="insta" viewBox="0 0 21.69 21.88"><defs><style>.cls-1{fill:#fff}</style></defs><g id="flTO7H.tif"><path d="M10.85 21.55l-4.32-.09a7 7 0 0 1-3.09-.71 5.3 5.3 0 0 1-2.91-4.14 27.63 27.63 0 0 1-.21-3.41V8.07a13 13 0 0 1 .32-3.29A5.34 5.34 0 0 1 5.22.66 23.14 23.14 0 0 1 8.56.45h5.56a11.14 11.14 0 0 1 2.93.3 5.34 5.34 0 0 1 4.13 4.6 22.13 22.13 0 0 1 .2 3.36v5.54a10.56 10.56 0 0 1-.38 3.18 5.29 5.29 0 0 1-4 3.78 12.1 12.1 0 0 1-2.41.26c-1.23.05-2.46.08-3.69.08zm0-1.94h2.57c.85 0 1.67-.05 2.5-.13a3.54 3.54 0 0 0 3.34-3 17.7 17.7 0 0 0 .22-2.92V8.39c0-.83-.05-1.67-.13-2.5a3.59 3.59 0 0 0-3.13-3.36 20.88 20.88 0 0 0-2.85-.19h-5c-.84 0-1.69.05-2.52.13a3.53 3.53 0 0 0-3.34 3 18.15 18.15 0 0 0-.23 3v5.12c0 .84 0 1.68.13 2.52a3.79 3.79 0 0 0 .91 2.18 4 4 0 0 0 2.88 1.23c1.55.08 3.09.05 4.64.09z" class="cls-1"/><path d="M16.27 11a5.42 5.42 0 1 1-5.42-5.42A5.41 5.41 0 0 1 16.27 11zm-1.91 0a3.51 3.51 0 1 0-3.48 3.49A3.5 3.5 0 0 0 14.36 11zm2.11-4.38a1.27 1.27 0 1 1 0-2.53 1.27 1.27 0 1 1 0 2.53z" class="cls-1"/></g></symbol><symbol id="twitter" viewBox="0 0 508.7 415.8"><style>.st0{fill:#fff}</style><path id="_x39_n8tE3.tif" d="M0 369.5c56.2 4.1 106.9-9.5 152.6-44-47.8-4.3-79.8-28.2-97.6-73.3 16.1 2.6 30.8 2.4 46.5-1.8-24.8-6.1-44.7-18.2-60-37.4-15.2-19.1-22.7-41-22.8-66.6 14.6 7.5 29.4 12.1 46.7 12.8-22.7-16.7-37.4-37.6-43.2-64.1-5.8-26.4-1.8-51.3 11.5-75.3C90.5 86.5 162 123.1 248.5 129.1c-.3-11.1-1.7-21.7-.8-32.2 4-42.5 26-73.1 65.5-88.7 41.3-16.3 79.2-7.9 112 22.2 2.6 2.4 4.7 2.7 7.9 2 19.8-4.6 38.8-11.5 56.5-21.5 1.4-.8 2.9-1.5 5.3-2.6-8 24.5-22.9 42.7-43.3 56.8 19.5-2 38.1-7.3 56-14.9.4.5.8.9 1.1 1.4-8.3 9.8-16.2 19.9-25.1 29.1-7.1 7.4-15.2 13.8-23.2 20.4-2.5 2-3.4 4-3.3 7.1 1.5 63.1-15.3 121.2-49.5 174-43.7 67.5-105 110.2-183.9 127-36.1 7.7-72.6 8.6-109.1 3.2-40.7-6.1-78.6-20.1-113.6-42-.2-.3-.6-.6-1-.9z" class="st0"/></symbol><symbol id="error" viewBox="0 0 22.63 20.89"><defs><style>.cls-1{fill:#cb3727}</style></defs><path d="M0 18a2.65 2.65 0 0 1 .39-1.42l8.4-15.11a2.89 2.89 0 0 1 5 0l8.42 15.06a2.79 2.79 0 0 1 .42 1.47 2.85 2.85 0 0 1-2.91 2.93H2.92A2.86 2.86 0 0 1 0 18zm12.78-1.81a1.32 1.32 0 0 0-1.45-1.31 1.32 1.32 0 1 0 0 2.62 1.31 1.31 0 0 0 1.45-1.35zm-.3-3.94l.18-4.33a1.24 1.24 0 0 0-1.35-1.31A1.22 1.22 0 0 0 10 7.87l.16 4.35a1.09 1.09 0 0 0 1.19 1.13 1.05 1.05 0 0 0 1.13-1.14z" class="cls-1"/></symbol></svg>