<?xml version="1.0" encoding="utf-8"?>
<!-- Generator: Adobe Illustrator 24.0.1, SVG Export Plug-In . SVG Version: 6.00 Build 0)  -->
<svg version="1.1" id="Layer_1" xmlns="http://www.w3.org/2000/svg" xmlns:xlink="http://www.w3.org/1999/xlink" x="0px" y="0px"
	 viewBox="0 0 32 32" style="enable-background:new 0 0 32 32;" xml:space="preserve">
<style type="text/css">
	.st0{fill:#231F20;}
</style>
<g>
	<path class="st0" d="M15.8,0c4.1,0,8,1.6,10.9,4.5c3,2.9,4.7,7,4.6,11.2c0.1,4.2-1.5,8.4-4.4,11.5c-2.7,3.1-6.7,4.8-10.8,4.8
		c-4.1,0-8.1-1.7-10.9-4.7c-2.9-2.9-4.6-7-4.5-11.1c0-2.3,0.4-4.5,1.3-6.6C2.7,7.7,3.9,6,5.3,4.5c1.4-1.4,3-2.5,4.9-3.3
		C12,0.4,13.9,0,15.8,0z M8.2,16c-0.1,2.3,0.8,4.5,2.4,6.1c2.8,3,7.6,3.2,10.6,0.3c0,0,0,0,0.1-0.1c0.1-0.1,0.2-0.1,0.2-0.2
		c1.6-1.6,2.5-3.9,2.3-6.2c0.1-2.3-0.8-4.5-2.4-6.2C20,8.4,18,7.6,16,7.6c-2,0-4,0.9-5.4,2.4C8.9,11.5,8.1,13.7,8.2,16z"/>
</g>
</svg>
