<svg xmlns="http://www.w3.org/2000/svg" id="Layer_1" viewBox="0 0 64 64" width="64" height="64"><defs><style>.cls-1{fill:#231f20}</style></defs><path d="M15.14 17.21a14.25 14.25 0 0 1 10.35 4.3 14.37 14.37 0 0 1 4.39 10.7 15.37 15.37 0 0 1-4.19 10.9 13.56 13.56 0 0 1-10.32 4.49A13.94 13.94 0 0 1 5 43.14 14.69 14.69 0 0 1 .68 32.59a16.34 16.34 0 0 1 1.21-6.26 14.6 14.6 0 0 1 3.22-4.9 15.16 15.16 0 0 1 4.64-3.1 13.49 13.49 0 0 1 5.39-1.12zM7.82 32.38a7.72 7.72 0 0 0 2.31 5.83 7.17 7.17 0 0 0 10.12.26l.21-.2a7.69 7.69 0 0 0 2.29-5.88 7.77 7.77 0 0 0-2.32-5.87 7.26 7.26 0 0 0-5.16-2.17 7.14 7.14 0 0 0-5.16 2.24 7.75 7.75 0 0 0-2.29 5.79zm36.44-6.44A8.54 8.54 0 0 1 51 29a11 11 0 0 1 2.68 7.49v7.09a10.7 10.7 0 0 1-.09 1.42 3.11 3.11 0 0 1-.38 1c-.35.7-1.39 1-3.1 1s-2.66-.34-3.06-1a3 3 0 0 1-.39-1 11.72 11.72 0 0 1-.06-1.45v-7a3.48 3.48 0 0 0-.92-2.57 3.21 3.21 0 0 0-2.36-.98 3.92 3.92 0 0 0-2.51.84 3.12 3.12 0 0 0-1.26 2v7.81a12.73 12.73 0 0 1 0 1.38 3.41 3.41 0 0 1-.44.97c-.34.69-1.38 1-3.1 1s-2.72-.36-3.1-1.08a3.78 3.78 0 0 1-.34-1 11.09 11.09 0 0 1-.06-1.41V19.46a10.78 10.78 0 0 1 .06-1.39 3.3 3.3 0 0 1 .33-1c.38-.75 1.43-1.07 3.1-1.07s2.72.36 3.06 1.09a3.39 3.39 0 0 1 .39 1.06 10.7 10.7 0 0 1 .06 1.39v8.9a6 6 0 0 1 4.75-2.5zm12.03 15a2.08 2.08 0 0 1 1.23-1.06 8.56 8.56 0 0 1 2.57-.28 3.57 3.57 0 0 1 2.52.76 3.28 3.28 0 0 1 .78 2.42v.64a11.32 11.32 0 0 1-.06 1.43 3.67 3.67 0 0 1-.39 1.15c-.42.78-1.45 1.16-3.08 1.16s-2.69-.26-3.22-.78a4.32 4.32 0 0 1-.78-3 5.47 5.47 0 0 1 .43-2.44zm5.4-4.69a10.58 10.58 0 0 1-4.12 0 1.68 1.68 0 0 1-1.06-.72 2.65 2.65 0 0 1-.36-.93 8.58 8.58 0 0 1-.06-1.24V20.59a9.14 9.14 0 0 1 .06-1.28 2.78 2.78 0 0 1 .4-.94 1.8 1.8 0 0 1 1.09-.74 9.5 9.5 0 0 1 4.11 0 1.67 1.67 0 0 1 1.07.76 3.07 3.07 0 0 1 .36 1 9 9 0 0 1 .06 1.27v12.73a8.65 8.65 0 0 1-.06 1.25 2.54 2.54 0 0 1-.39.91 1.69 1.69 0 0 1-1.1.7z" class="cls-1"/></svg>