<svg viewBox="0 0 221.18 37.73" xmlns="http://www.w3.org/2000/svg"><g fill="#231f20"><path d="m17.23 1.49a17 17 0 0 1 12.34 5.13 17.16 17.16 0 0 1 5.23 12.75 18.31 18.31 0 0 1 -5 13 16.15 16.15 0 0 1 -12.29 5.35 16.64 16.64 0 0 1 -12.4-5.32 17.45 17.45 0 0 1 -5.11-12.58 19.33 19.33 0 0 1 1.44-7.46 17.32 17.32 0 0 1 3.84-5.83 18 18 0 0 1 5.52-3.7 16.18 16.18 0 0 1 6.43-1.34zm-8.73 18.09a9.22 9.22 0 0 0 2.76 6.94 8.53 8.53 0 0 0 12.31.07 9.15 9.15 0 0 0 2.73-7 9.26 9.26 0 0 0 -2.76-7 8.7 8.7 0 0 0 -6.16-2.59 8.6 8.6 0 0 0 -6.15 2.67 9.25 9.25 0 0 0 -2.73 6.91z"/><path d="m51.94 11.9a10.19 10.19 0 0 1 8 3.65 13.07 13.07 0 0 1 3.19 8.93v8.45a13.48 13.48 0 0 1 -.07 1.65 3.84 3.84 0 0 1 -.46 1.28c-.41.83-1.65 1.24-3.69 1.24s-3.17-.41-3.65-1.24a3.85 3.85 0 0 1 -.46-1.3 14.79 14.79 0 0 1 -.07-1.73v-8.4a4.18 4.18 0 0 0 -1.1-3.07 3.81 3.81 0 0 0 -2.81-1.1 4.65 4.65 0 0 0 -3 1 3.66 3.66 0 0 0 -1.49 2.33v9.31a13.48 13.48 0 0 1 -.07 1.65 3.84 3.84 0 0 1 -.46 1.28c-.41.83-1.65 1.24-3.69 1.24s-3.25-.43-3.7-1.29a4.74 4.74 0 0 1 -.41-1.22 13.5 13.5 0 0 1 -.07-1.68v-28.7a13.67 13.67 0 0 1 .07-1.66 4 4 0 0 1 .4-1.22c.45-.87 1.7-1.3 3.74-1.3s3.24.43 3.65 1.3a3.8 3.8 0 0 1 .46 1.27 13.59 13.59 0 0 1 .07 1.65v10.61a7.11 7.11 0 0 1 5.62-2.93z"/><path d="m79.63 32.16a4.6 4.6 0 0 1 -1.25-2.76q0-1.23 2.07-3.24a3.62 3.62 0 0 1 2.55-1.16c.9 0 2.14.8 3.74 2.4a7.43 7.43 0 0 0 1.92 1.6 4.58 4.58 0 0 0 2.3.74c3 0 4.46-1.21 4.46-3.65a2.13 2.13 0 0 0 -1.22-1.84 8.82 8.82 0 0 0 -3-1.08 27.26 27.26 0 0 1 -3.93-1.08 25.28 25.28 0 0 1 -3.94-1.76 7.91 7.91 0 0 1 -3-3.19 10.64 10.64 0 0 1 -1.33-5.28 10.06 10.06 0 0 1 3.14-7.37 11.57 11.57 0 0 1 8.57-3.15 17.45 17.45 0 0 1 5.29.75 10 10 0 0 1 3.26 1.51l1.2.91a3.76 3.76 0 0 1 1.54 2.35 5.28 5.28 0 0 1 -1.2 2.64q-1.64 2.4-3.36 2.4a4.94 4.94 0 0 1 -2.5-1 5.09 5.09 0 0 1 -.55-.48 8.38 8.38 0 0 0 -.74-.62 4.77 4.77 0 0 0 -2.57-.62 4.27 4.27 0 0 0 -2.59.74 2.39 2.39 0 0 0 -1 2.06 2.46 2.46 0 0 0 1.22 2.14 7.6 7.6 0 0 0 3 1.1 38.17 38.17 0 0 1 4 .89 24.63 24.63 0 0 1 4 1.47 7 7 0 0 1 3 3 10.35 10.35 0 0 1 1.29 5.29 11.71 11.71 0 0 1 -1.25 5.5 9.5 9.5 0 0 1 -3.29 3.63 14.91 14.91 0 0 1 -8.31 2.54 16 16 0 0 1 -4.27-.54 11.45 11.45 0 0 1 -3.26-1.37 11.58 11.58 0 0 1 -3.56-3z"/><path d="m121.1 11.9a10.17 10.17 0 0 1 8 3.65 13.08 13.08 0 0 1 3.2 8.93v8.45a13 13 0 0 1 -.08 1.65 3.79 3.79 0 0 1 -.45 1.28c-.42.83-1.65 1.24-3.7 1.24s-3.17-.41-3.65-1.24a4 4 0 0 1 -.45-1.3 14.79 14.79 0 0 1 -.07-1.73v-8.4a4.14 4.14 0 0 0 -1.11-3.07 3.77 3.77 0 0 0 -2.81-1.1 4.69 4.69 0 0 0 -3 1 3.64 3.64 0 0 0 -1.48 2.33v9.31a13 13 0 0 1 -.08 1.65 3.79 3.79 0 0 1 -.45 1.28c-.42.83-1.65 1.24-3.7 1.24s-3.25-.43-3.69-1.29a4.4 4.4 0 0 1 -.41-1.25 13.5 13.5 0 0 1 -.07-1.68v-28.67a13.67 13.67 0 0 1 .07-1.66 3.73 3.73 0 0 1 .41-1.22c.42-.87 1.68-1.3 3.73-1.3s3.23.43 3.65 1.3a3.75 3.75 0 0 1 .45 1.27 13.16 13.16 0 0 1 .08 1.65v10.61a7.1 7.1 0 0 1 5.61-2.93z"/><path d="m160.51 21.43a5.85 5.85 0 0 1 -1.46 4.37 4.6 4.6 0 0 1 -3.24 1.42h-11.38a2.64 2.64 0 0 0 1.57 2.25 6.31 6.31 0 0 0 3.17.91 13.36 13.36 0 0 0 4.37-.57l.53-.19a4.73 4.73 0 0 1 1.92-.53q1.53 0 2.64 2.16a5.36 5.36 0 0 1 .62 2.21q0 4.26-10.22 4.27a15.34 15.34 0 0 1 -6.31-1.23 10.6 10.6 0 0 1 -4.3-3.24 13.75 13.75 0 0 1 -3-8.68 12.55 12.55 0 0 1 3.91-9.68 13.84 13.84 0 0 1 9.77-3.62q6.66 0 9.79 4.7a9.76 9.76 0 0 1 1.62 5.45zm-10.13 1.42c1.22 0 1.83-.51 1.83-1.54a2.15 2.15 0 0 0 -.84-1.77 3.75 3.75 0 0 0 -2.4-.68 4.85 4.85 0 0 0 -3.1 1.28 3.57 3.57 0 0 0 -1.54 2.71z"/><path d="m188 21.43a5.81 5.81 0 0 1 -1.46 4.37 4.6 4.6 0 0 1 -3.24 1.42h-11.37a2.63 2.63 0 0 0 1.59 2.25 6.26 6.26 0 0 0 3.17.91 13.29 13.29 0 0 0 4.36-.57l.53-.19a4.73 4.73 0 0 1 1.92-.53q1.55 0 2.64 2.16a5.24 5.24 0 0 1 .63 2.21q0 4.26-10.23 4.27a15.34 15.34 0 0 1 -6.31-1.23 10.67 10.67 0 0 1 -4.3-3.24 13.81 13.81 0 0 1 -3-8.68 12.55 12.55 0 0 1 3.91-9.68 13.86 13.86 0 0 1 9.77-3.62q6.67 0 9.79 4.7a9.76 9.76 0 0 1 1.6 5.45zm-10.12 1.42c1.21 0 1.82-.51 1.82-1.54a2.15 2.15 0 0 0 -.84-1.77 3.75 3.75 0 0 0 -2.4-.68 4.88 4.88 0 0 0 -3.1 1.28 3.56 3.56 0 0 0 -1.53 2.71z"/><path d="m205.34 20.3-3.12-.19v6.63a3.34 3.34 0 0 0 .41 1.87 1.77 1.77 0 0 0 1.54.57 14.6 14.6 0 0 1 1.72.08 3.4 3.4 0 0 1 1.28.45c.73.42 1.1 1.49 1.1 3.22 0 2-.45 3.25-1.34 3.69a4.36 4.36 0 0 1 -1.28.41 12.87 12.87 0 0 1 -1.6.07q-5 0-7.59-2.25t-2.59-7.63v-7.11a12.22 12.22 0 0 1 -2 .15 2.22 2.22 0 0 1 -1.75-.82 4.33 4.33 0 0 1 -.7-2.78 12.06 12.06 0 0 1 .24-2.86 2.53 2.53 0 0 1 .68-1.27 2.92 2.92 0 0 1 1.92-.63l1.58.2v-4.95a13 13 0 0 1 .07-1.63 3 3 0 0 1 .46-1.15c.41-.8 1.65-1.2 3.69-1.2s3.48.59 3.89 1.77a9 9 0 0 1 .24 2.45v4.71c1.41-.13 2.47-.2 3.19-.2a13.09 13.09 0 0 1 1.64.08 3.82 3.82 0 0 1 1.27.45c.83.42 1.25 1.65 1.25 3.7s-.44 3.25-1.3 3.69a4.31 4.31 0 0 1 -1.27.41 13.67 13.67 0 0 1 -1.63.07z"/><path d="m212.69 29.78a2.51 2.51 0 0 1 1.46-1.27 10.46 10.46 0 0 1 3.07-.33 4.24 4.24 0 0 1 3 .91 3.89 3.89 0 0 1 .93 2.88v.77a14.21 14.21 0 0 1 -.07 1.7 4.26 4.26 0 0 1 -.46 1.32c-.51.93-1.73 1.39-3.67 1.39s-3.21-.31-3.84-.93-.93-1.84-.93-3.63a6.4 6.4 0 0 1 .51-2.81zm6.43-5.59a12.63 12.63 0 0 1 -4.9 0 2 2 0 0 1 -1.27-.86 3.34 3.34 0 0 1 -.43-1.11 10.68 10.68 0 0 1 -.07-1.48v-15.22a11.28 11.28 0 0 1 .07-1.52 3.16 3.16 0 0 1 .48-1.12 2.15 2.15 0 0 1 1.3-.89 11.67 11.67 0 0 1 4.9 0 2 2 0 0 1 1.27.91 3.55 3.55 0 0 1 .43 1.16 11.28 11.28 0 0 1 .07 1.51v15.21a10.75 10.75 0 0 1 -.07 1.49 2.84 2.84 0 0 1 -.46 1.08 2 2 0 0 1 -1.32.84z"/></g></svg>