<?xml version="1.0" encoding="utf-8"?>
<!-- Generator: Adobe Illustrator 24.0.3, SVG Export Plug-In . SVG Version: 6.00 Build 0)  -->
<svg version="1.1" id="Layer_1" xmlns="http://www.w3.org/2000/svg" xmlns:xlink="http://www.w3.org/1999/xlink" x="0px" y="0px"
	 viewBox="0 0 221.2 37.7" style="enable-background:new 0 0 221.2 37.7;" xml:space="preserve">
<style type="text/css">
	.st0{fill:#FFFFFF;}
</style>
<g>
	<path class="st0" d="M17.2,1.5c4.6,0,9.1,1.8,12.3,5.1c3.4,3.3,5.3,8,5.2,12.7c0.1,4.8-1.7,9.5-5,13c-3.1,3.5-7.6,5.4-12.3,5.3
		c-4.7,0.1-9.2-1.9-12.4-5.3C1.8,29.1-0.1,24.5,0,19.8c0-2.6,0.5-5.1,1.4-7.5c0.9-2.2,2.2-4.2,3.8-5.8C6.9,5,8.7,3.7,10.8,2.8
		C12.8,1.9,15,1.5,17.2,1.5z M8.5,19.6c-0.1,2.6,0.9,5.1,2.8,6.9c3.2,3.4,8.6,3.6,12.1,0.3c0.1-0.1,0.2-0.2,0.3-0.2
		c1.9-1.8,2.9-4.4,2.7-7c0.1-2.6-0.9-5.2-2.8-7c-1.6-1.6-3.8-2.6-6.2-2.6c-2.3,0-4.5,1-6.1,2.7C9.4,14.5,8.4,17,8.5,19.6z"/>
	<path class="st0" d="M51.9,11.9c3.1-0.1,6,1.3,8,3.6c2.1,2.5,3.3,5.7,3.2,8.9v8.5c0,0.6,0,1.1-0.1,1.7c-0.1,0.5-0.2,0.9-0.5,1.3
		c-0.4,0.8-1.7,1.2-3.7,1.2s-3.2-0.4-3.7-1.2c-0.2-0.4-0.4-0.8-0.5-1.3c-0.1-0.6-0.1-1.2-0.1-1.7v-8.4c0.1-1.1-0.3-2.2-1.1-3.1
		c-0.7-0.7-1.8-1.1-2.8-1.1c-1.1,0-2.1,0.3-3,1c-0.8,0.6-1.3,1.4-1.5,2.3v9.3c0,0.6,0,1.1-0.1,1.7c-0.1,0.5-0.2,0.9-0.5,1.3
		c-0.4,0.8-1.7,1.2-3.7,1.2s-3.2-0.4-3.7-1.3c-0.2-0.4-0.3-0.8-0.4-1.2c-0.1-0.6-0.1-1.1-0.1-1.7V4.2c0-0.6,0-1.1,0.1-1.7
		c0.1-0.4,0.2-0.8,0.4-1.2C38.9,0.4,40.1,0,42.1,0s3.2,0.4,3.7,1.3c0.2,0.4,0.4,0.8,0.5,1.3c0.1,0.5,0.1,1.1,0.1,1.6v10.6
		C47.6,13,49.7,11.9,51.9,11.9z"/>
	<path class="st0" d="M79.6,32.2c-0.7-0.8-1.2-1.7-1.2-2.8c0-0.8,0.7-1.9,2.1-3.2C81.1,25.4,82,25,83,25c0.9,0,2.1,0.8,3.7,2.4
		c0.5,0.6,1.2,1.2,1.9,1.6c0.7,0.4,1.5,0.7,2.3,0.7c3,0,4.5-1.2,4.5-3.6c0-0.8-0.5-1.5-1.2-1.8c-0.9-0.5-1.9-0.9-3-1.1
		c-1.3-0.3-2.6-0.6-3.9-1.1c-1.4-0.5-2.7-1.1-3.9-1.8c-1.3-0.8-2.3-1.9-3-3.2c-0.9-1.6-1.4-3.4-1.3-5.3c0-2.8,1.1-5.5,3.1-7.4
		c2.3-2.2,5.4-3.3,8.6-3.2c1.8,0,3.6,0.2,5.3,0.8c1.2,0.3,2.3,0.8,3.3,1.5l1.2,0.9c0.8,0.6,1.3,1.4,1.5,2.3c-0.1,1-0.6,1.9-1.2,2.6
		c-1.1,1.6-2.2,2.4-3.4,2.4c-0.9-0.1-1.8-0.4-2.5-1c-0.2-0.1-0.4-0.3-0.6-0.5c-0.2-0.2-0.5-0.4-0.7-0.6c-0.8-0.4-1.7-0.7-2.6-0.6
		c-0.9,0-1.8,0.2-2.6,0.7c-0.7,0.5-1,1.2-1,2.1c0,0.9,0.5,1.7,1.2,2.1c0.9,0.6,1.9,1,3,1.1c1.3,0.2,2.7,0.5,4,0.9
		c1.4,0.4,2.7,0.9,4,1.5c1.3,0.7,2.3,1.7,3,3c0.9,1.6,1.3,3.4,1.3,5.3c0,1.9-0.4,3.8-1.2,5.5c-0.8,1.5-1.9,2.7-3.3,3.6
		c-2.5,1.7-5.3,2.5-8.3,2.5c-1.4,0-2.9-0.2-4.3-0.5c-1.2-0.3-2.3-0.7-3.3-1.4c-1.4-0.7-2.6-1.8-3.6-3L79.6,32.2z"/>
	<path class="st0" d="M121.1,11.9c3.1-0.1,6,1.3,8,3.6c2.1,2.5,3.3,5.7,3.2,8.9v8.5c0,0.6,0,1.1-0.1,1.7c-0.1,0.5-0.2,0.9-0.4,1.3
		c-0.4,0.8-1.6,1.2-3.7,1.2s-3.2-0.4-3.7-1.2c-0.2-0.4-0.4-0.8-0.4-1.3c-0.1-0.6-0.1-1.2-0.1-1.7v-8.4c0.1-1.1-0.3-2.2-1.1-3.1
		c-0.7-0.7-1.8-1.1-2.8-1.1c-1.1,0-2.1,0.3-3,1c-0.8,0.6-1.3,1.4-1.5,2.3v9.3c0,0.6,0,1.1-0.1,1.7c-0.1,0.5-0.2,0.9-0.4,1.3
		c-0.4,0.8-1.7,1.2-3.7,1.2s-3.2-0.4-3.7-1.3c-0.2-0.4-0.3-0.8-0.4-1.2c-0.1-0.6-0.1-1.1-0.1-1.7V4.2c0-0.6,0-1.1,0.1-1.7
		c0.1-0.4,0.2-0.8,0.4-1.2c0.4-0.9,1.7-1.3,3.7-1.3s3.2,0.4,3.7,1.3c0.2,0.4,0.4,0.8,0.4,1.3c0.1,0.5,0.1,1.1,0.1,1.6v10.6
		C116.8,13,118.9,11.9,121.1,11.9L121.1,11.9z"/>
	<path class="st0" d="M160.5,21.4c0.1,1.6-0.4,3.2-1.5,4.4c-0.8,0.9-2,1.4-3.2,1.4h-11.4c0.1,1,0.7,1.9,1.6,2.2
		c1,0.6,2.1,0.9,3.2,0.9c1.5,0.1,3-0.1,4.4-0.6l0.5-0.2c0.6-0.3,1.2-0.5,1.9-0.5c1,0,1.9,0.7,2.6,2.2c0.4,0.7,0.6,1.4,0.6,2.2
		c0,2.8-3.4,4.3-10.2,4.3c-2.2,0-4.3-0.4-6.3-1.2c-1.7-0.7-3.2-1.8-4.3-3.2c-2-2.5-3-5.5-3-8.7c-0.2-3.6,1.3-7.2,3.9-9.7
		c2.7-2.4,6.2-3.7,9.8-3.6c4.4,0,7.7,1.6,9.8,4.7C160,17.6,160.5,19.5,160.5,21.4L160.5,21.4z M150.4,22.9c1.2,0,1.8-0.5,1.8-1.5
		c0-0.7-0.3-1.3-0.8-1.8c-0.7-0.5-1.5-0.7-2.4-0.7c-1.2,0-2.3,0.5-3.1,1.3c-0.9,0.6-1.5,1.6-1.5,2.7L150.4,22.9z"/>
	<path class="st0" d="M188,21.4c0.1,1.6-0.4,3.2-1.5,4.4c-0.8,0.9-2,1.4-3.2,1.4h-11.4c0.1,1,0.7,1.9,1.6,2.2c1,0.6,2.1,0.9,3.2,0.9
		c1.5,0.1,2.9-0.1,4.4-0.6l0.5-0.2c0.6-0.3,1.2-0.5,1.9-0.5c1,0,1.9,0.7,2.6,2.2c0.4,0.7,0.6,1.4,0.6,2.2c0,2.8-3.4,4.3-10.2,4.3
		c-2.2,0-4.3-0.4-6.3-1.2c-1.7-0.7-3.2-1.8-4.3-3.2c-2-2.5-3-5.5-3-8.7c-0.2-3.6,1.3-7.2,3.9-9.7c2.7-2.4,6.2-3.7,9.8-3.6
		c4.4,0,7.7,1.6,9.8,4.7C187.5,17.6,188,19.5,188,21.4z M177.9,22.9c1.2,0,1.8-0.5,1.8-1.5c0-0.7-0.3-1.3-0.8-1.8
		c-0.7-0.5-1.5-0.7-2.4-0.7c-1.2,0-2.3,0.5-3.1,1.3c-0.9,0.6-1.5,1.6-1.5,2.7L177.9,22.9z"/>
	<path class="st0" d="M205.3,20.3l-3.1-0.2v6.6c0,0.6,0.1,1.3,0.4,1.9c0.4,0.4,1,0.6,1.5,0.6c0.6,0,1.1,0,1.7,0.1
		c0.5,0.1,0.9,0.2,1.3,0.5c0.7,0.4,1.1,1.5,1.1,3.2c0,2-0.4,3.2-1.3,3.7c-0.4,0.2-0.8,0.3-1.3,0.4c-0.5,0.1-1.1,0.1-1.6,0.1
		c-3.3,0-5.9-0.8-7.6-2.2c-1.7-1.5-2.6-4-2.6-7.6v-7.1c-0.7,0.1-1.3,0.2-2,0.1c-0.7,0-1.3-0.3-1.8-0.8c-0.5-0.8-0.8-1.8-0.7-2.8
		c0-1,0-1.9,0.2-2.9c0.1-0.5,0.3-0.9,0.7-1.3c0.5-0.4,1.2-0.7,1.9-0.6l1.6,0.2V7.1c0-0.5,0-1.1,0.1-1.6c0.1-0.4,0.2-0.8,0.5-1.2
		c0.4-0.8,1.6-1.2,3.7-1.2s3.5,0.6,3.9,1.8c0.2,0.8,0.3,1.6,0.2,2.4v4.7c1.4-0.1,2.5-0.2,3.2-0.2c0.5,0,1.1,0,1.6,0.1
		c0.4,0.1,0.9,0.2,1.3,0.4c0.8,0.4,1.2,1.6,1.2,3.7s-0.4,3.2-1.3,3.7c-0.4,0.2-0.8,0.3-1.3,0.4C206.4,20.3,205.9,20.3,205.3,20.3
		L205.3,20.3z"/>
	<path class="st0" d="M212.7,29.8c0.3-0.6,0.8-1.1,1.5-1.3c1-0.3,2-0.4,3.1-0.3c1.1-0.1,2.2,0.2,3,0.9c0.7,0.8,1,1.8,0.9,2.9v0.8
		c0,0.6,0,1.1-0.1,1.7c-0.1,0.5-0.2,0.9-0.5,1.3c-0.5,0.9-1.7,1.4-3.7,1.4s-3.2-0.3-3.8-0.9s-0.9-1.8-0.9-3.6
		C212.1,31.6,212.3,30.7,212.7,29.8z M219.1,24.2c-1.6,0.3-3.3,0.3-4.9,0c-0.5-0.1-1-0.4-1.3-0.9c-0.2-0.3-0.4-0.7-0.4-1.1
		c-0.1-0.5-0.1-1-0.1-1.5V5.5c0-0.5,0-1,0.1-1.5c0.1-0.4,0.2-0.8,0.5-1.1c0.3-0.5,0.8-0.8,1.3-0.9c1.6-0.3,3.3-0.3,4.9,0
		c0.5,0.1,1,0.4,1.3,0.9c0.2,0.4,0.4,0.8,0.4,1.2c0.1,0.5,0.1,1,0.1,1.5v15.2c0,0.5,0,1-0.1,1.5c-0.1,0.4-0.2,0.8-0.5,1.1
		C220.1,23.8,219.7,24.1,219.1,24.2L219.1,24.2z"/>
</g>
</svg>
