<svg xmlns="http://www.w3.org/2000/svg" id="Layer_1" viewBox="0 0 32 32" width="32" height="32"><style>.st0{fill:#231f20}</style><path d="M15.8 0c4.1 0 8 1.6 10.9 4.5 3 2.9 4.7 7 4.6 11.2.1 4.2-1.5 8.4-4.4 11.5-2.7 3.1-6.7 4.8-10.8 4.8C12 32 8 30.3 5.2 27.3 2.3 24.4.6 20.3.7 16.2c0-2.3.4-4.5 1.3-6.6.7-1.9 1.9-3.6 3.3-5.1 1.4-1.4 3-2.5 4.9-3.3C12 .4 13.9 0 15.8 0zM8.2 16c-.1 2.3.8 4.5 2.4 6.1 2.8 3 7.6 3.2 10.6.3l.1-.1c.1-.1.2-.1.2-.2 1.6-1.6 2.5-3.9 2.3-6.2.1-2.3-.8-4.5-2.4-6.2C20 8.4 18 7.6 16 7.6c-2 0-4 .9-5.4 2.4-1.7 1.5-2.5 3.7-2.4 6z" class="st0"/></svg>